# xmcd CD database file
#
# Track frame offsets:
#	150
#	8975
#	18242
#	30172
#	40615
#	51987
#	61675
#	70557
#	79197
#	89350
#	98107
#	103175
#	112332
#	125290
#
# Disc length: 1789 seconds
#
# Revision: 10
# Processed by: cddbd v1.4PL0 Copyright (c) Steve Scherf et al.
# Submitted via: CDex 1.50beta9
#
DISCID=a706fb0e
DTITLE=Groovie Ghoulies - Appetite For Adrenochrome
DYEAR=1989
DGENRE=Punk Rock
TTITLE0=Lost Generation
TTITLE1=Do The Bat
TTITLE2=Armageddon 2000
TTITLE3=2000 Man
TTITLE4=My Computer Said "Kill"
TTITLE5=King Kong
TTITLE6=No Blood
TTITLE7=Don't Go Out
TTITLE8=The Blob
TTITLE9=Dead End
TTITLE10=Blood Beach
TTITLE11=Lookout!
TTITLE12=Ghoul Chant
TTITLE13=Just A Few More Hours
EXTD=YEAR: 1989
EXTT0=
EXTT1=
EXTT2=
EXTT3=
EXTT4=
EXTT5=
EXTT6=
EXTT7=
EXTT8=
EXTT9=
EXTT10=
EXTT11=
EXTT12=
EXTT13=
PLAYORDER=
